<svg width="19" height="18" viewBox="0 0 19 18" fill="none" xmlns="http://www.w3.org/2000/svg">
<path d="M9.48056 16.4262C13.5731 16.4262 16.8908 13.1085 16.8908 9.01596C16.8908 4.92339 13.5731 1.60571 9.48056 1.60571C5.38799 1.60571 2.07031 4.92339 2.07031 9.01596C2.07031 13.1085 5.38799 16.4262 9.48056 16.4262Z" fill="#5E60CE"/>
<path d="M9.46452 1.85955C10.8768 1.85955 12.2573 2.27834 13.4316 3.06294C14.6058 3.84755 15.521 4.96275 16.0615 6.2675C16.6019 7.57225 16.7433 9.00797 16.4678 10.3931C16.1923 11.7782 15.5122 13.0505 14.5136 14.0491C13.515 15.0478 12.2427 15.7278 10.8576 16.0033C9.47244 16.2789 8.03673 16.1375 6.73197 15.597C5.42722 15.0566 4.31202 14.1413 3.52742 12.9671C2.74281 11.7928 2.32403 10.4123 2.32403 9.00005C2.33134 7.10852 3.08599 5.29656 4.42351 3.95904C5.76103 2.62152 7.573 1.86687 9.46452 1.85955ZM9.46452 0.272778C7.73997 0.279833 6.05616 0.797669 4.62568 1.76091C3.19519 2.72416 2.08215 4.08962 1.42707 5.68493C0.772 7.28024 0.604256 9.03387 0.945021 10.7244C1.28579 12.415 2.11978 13.9667 3.34172 15.1837C4.56366 16.4006 6.11876 17.2283 7.81071 17.5621C9.50265 17.896 11.2556 17.7211 12.8482 17.0595C14.4408 16.3979 15.8017 15.2793 16.7591 13.8449C17.7165 12.4105 18.2275 10.7246 18.2275 9.00005C18.2275 7.85096 18.0006 6.71318 17.5598 5.652C17.119 4.59083 16.4729 3.62715 15.6587 2.81628C14.8445 2.00541 13.8782 1.36331 12.8153 0.926827C11.7523 0.490346 10.6136 0.268077 9.46452 0.272778Z" fill="#5E60CE"/>
<path d="M12.9311 6.34221L8.59914 10.6742L6.11667 8.19168L5.28076 9.02759L8.59914 12.346L13.767 7.17812L12.9311 6.34221Z" fill="#F2F2F2"/>
</svg>
