<svg width="22" height="36" viewBox="0 0 22 36" fill="none" xmlns="http://www.w3.org/2000/svg">
<g clip-path="url(#clip0_4130_511)">
<path d="M11.0215 2.93302C14.1472 6.9011 15.8157 11.7944 15.7552 16.8155V18.0141L16.7864 18.6416C18.1189 19.4482 19.1126 20.6993 19.5866 22.1669C19.1705 21.8605 18.7351 21.5803 18.2832 21.3278L15.5332 19.7838L15.039 22.9001C14.9962 23.1755 14.9389 23.4485 14.8672 23.718H7.16145C7.04686 23.3655 6.95376 23.0129 6.86783 22.6463L6.24478 19.8261L3.70962 21.2362C3.28609 21.473 2.87717 21.7344 2.48501 22.0188C2.96818 20.5682 3.94117 19.3242 5.24218 18.4935L6.22329 17.866V16.7521C6.24099 11.7513 7.92961 6.89523 11.0286 2.93302H11.0215ZM11.0286 0C10.8679 0.000390307 10.7128 0.0579856 10.5918 0.162162L10.5273 0.218566C6.39772 4.76564 4.1046 10.6454 4.08202 16.745C2.32961 17.8643 1.03244 19.5543 0.417202 21.5197C-0.19804 23.485 -0.0922329 25.6007 0.716133 27.4971C1.5677 25.6455 2.99125 24.1058 4.78384 23.0975C4.96362 23.8642 5.20304 24.6161 5.49999 25.3467C5.53765 25.4871 5.62112 25.6114 5.73757 25.7006C5.85402 25.7898 5.997 25.8388 6.14452 25.8402H16.0846C16.2851 25.8402 16.4857 25.6498 16.5859 25.3537C16.8757 24.6592 17.0778 23.9322 17.1875 23.1892C18.9835 24.1932 20.4082 25.7342 21.2552 27.5887C22.1123 25.7017 22.245 23.5727 21.6287 21.5967C21.0123 19.6206 19.6888 17.9319 17.9036 16.8437C17.9745 10.7082 15.6935 4.77179 11.5156 0.218566C11.4534 0.150085 11.3773 0.0952397 11.2921 0.0575871C11.207 0.0199344 11.1148 0.000314749 11.0215 0L11.0286 0Z" fill="#4EA8DE"/>
<path d="M11.0214 16.1598C10.4714 16.1598 9.93363 15.9995 9.47599 15.699C9.01834 15.3986 8.66128 14.9715 8.44981 14.4716C8.23834 13.9716 8.18194 13.4213 8.2877 12.8898C8.39346 12.3584 8.65666 11.8697 9.04411 11.4853C9.43157 11.1009 9.92594 10.838 10.4649 10.7298C11.0039 10.6216 11.5633 10.6729 12.0727 10.8773C12.5821 11.0816 13.0187 11.4298 13.3273 11.8781C13.636 12.3263 13.803 12.8545 13.8073 13.396C13.8158 13.7469 13.7541 14.0961 13.6255 14.4235C13.497 14.751 13.3042 15.0503 13.0581 15.3043C12.812 15.5583 12.5175 15.7622 12.1914 15.9041C11.8653 16.0461 11.514 16.1234 11.1575 16.1316C11.1124 16.1387 11.0665 16.1387 11.0214 16.1316V16.1598Z" fill="#4EA8DE"/>
<path d="M14.8958 27.5958C14.7166 27.5901 14.5381 27.6198 14.3707 27.683C14.2033 27.7462 14.0504 27.8416 13.921 27.9638C13.7916 28.086 13.6882 28.2323 13.6171 28.3943C13.5459 28.5563 13.5083 28.7307 13.5065 28.9072V33.067C13.5065 33.4297 13.6528 33.7776 13.9134 34.0342C14.1739 34.2907 14.5273 34.4348 14.8958 34.4348C15.2643 34.4348 15.6176 34.2907 15.8782 34.0342C16.1387 33.7776 16.2851 33.4297 16.2851 33.067V28.9636C16.2908 28.7877 16.261 28.6126 16.1972 28.4482C16.1335 28.2839 16.0371 28.1337 15.9138 28.0064C15.7905 27.879 15.6427 27.7772 15.479 27.7067C15.3152 27.6362 15.1389 27.5985 14.9602 27.5958H14.8958Z" fill="#5E60CE"/>
<path d="M7.16142 27.5958C6.97918 27.5863 6.79687 27.613 6.62534 27.6743C6.4538 27.7356 6.29653 27.8302 6.1629 27.9526C6.02927 28.0749 5.922 28.2225 5.84748 28.3865C5.77296 28.5505 5.73271 28.7275 5.72913 28.9072V33.067C5.72913 33.4297 5.8755 33.7777 6.13605 34.0342C6.3966 34.2907 6.74998 34.4348 7.11845 34.4348C7.48692 34.4348 7.8403 34.2907 8.10085 34.0342C8.3614 33.7777 8.50777 33.4297 8.50777 33.067V28.9636C8.5135 28.7877 8.48361 28.6126 8.41986 28.4482C8.35611 28.2839 8.25977 28.1337 8.13646 28.0064C8.01314 27.879 7.86532 27.7772 7.70161 27.7067C7.53789 27.6362 7.36157 27.5985 7.1829 27.5958H7.16142Z" fill="#5E60CE"/>
<path d="M10.9212 27.5958C10.7425 27.592 10.5648 27.623 10.3982 27.6869C10.2317 27.7507 10.0796 27.8463 9.95056 27.9681C9.82154 28.0899 9.71816 28.2355 9.64632 28.3966C9.57448 28.5577 9.53558 28.7312 9.53186 28.9072V34.6392C9.53186 35.002 9.67823 35.3499 9.93878 35.6064C10.1993 35.8629 10.5527 36.007 10.9212 36.007C11.2897 36.007 11.643 35.8629 11.9036 35.6064C12.1641 35.3499 12.3105 35.002 12.3105 34.6392V28.9988C12.3162 28.823 12.2863 28.6478 12.2226 28.4835C12.1588 28.3191 12.0625 28.1689 11.9392 28.0416C11.8159 27.9143 11.6681 27.8124 11.5043 27.7419C11.3406 27.6714 11.1643 27.6337 10.9856 27.631L10.9212 27.5958Z" fill="#5E60CE"/>
</g>
<defs>
<clipPath id="clip0_4130_511">
<rect width="22" height="36" fill="white"/>
</clipPath>
</defs>
</svg>
